<svg width="20" height="21" viewBox="0 0 20 21" fill="none" xmlns="http://www.w3.org/2000/svg">
<g clip-path="url(#clip0_1_137)">
<path d="M6.86922 6.55221L1.55255 7.32304L1.45838 7.34221C1.31583 7.38005 1.18588 7.45505 1.08179 7.55954C0.977707 7.66404 0.903219 7.79428 0.865934 7.93698C0.82865 8.07968 0.829905 8.22972 0.869572 8.37177C0.909239 8.51382 0.985896 8.64281 1.09172 8.74554L4.94338 12.4947L4.03505 17.7905L4.02422 17.8822C4.01549 18.0296 4.0461 18.1768 4.11292 18.3085C4.17974 18.4402 4.28037 18.5518 4.4045 18.6318C4.52862 18.7118 4.67179 18.7575 4.81934 18.764C4.96689 18.7705 5.11352 18.7377 5.24422 18.6689L9.99922 16.1689L14.7434 18.6689L14.8267 18.7072C14.9643 18.7614 15.1138 18.778 15.2598 18.7553C15.4059 18.7327 15.5434 18.6716 15.658 18.5783C15.7727 18.485 15.8605 18.3628 15.9124 18.2244C15.9643 18.086 15.9785 17.9362 15.9534 17.7905L15.0442 12.4947L18.8975 8.74471L18.9625 8.67388C19.0554 8.55952 19.1163 8.42259 19.139 8.27704C19.1617 8.13149 19.1454 7.98252 19.0918 7.84532C19.0382 7.70811 18.9492 7.58757 18.8338 7.49597C18.7184 7.40437 18.5808 7.34499 18.435 7.32388L13.1184 6.55221L10.7417 1.73554C10.6729 1.59599 10.5665 1.47847 10.4344 1.3963C10.3023 1.31412 10.1498 1.27057 9.99422 1.27057C9.83864 1.27057 9.68616 1.31412 9.55406 1.3963C9.42195 1.47847 9.31549 1.59599 9.24672 1.73554L6.86922 6.55221Z" fill="#F99253"/>
</g>
<defs>
<clipPath id="clip0_1_137">
<rect width="20" height="20" fill="white" transform="translate(0 0.435547)"/>
</clipPath>
</defs>
</svg>
